<svg version="1.1" id="Layer_1" xmlns="http://www.w3.org/2000/svg" xmlns:xlink="http://www.w3.org/1999/xlink" x="0px" y="0px"
	 width="100%" viewBox="0 0 2560 2560" enable-background="new 0 0 2560 2560" xml:space="preserve">
<path fill="#000000" opacity="1.000000" stroke="none" 
	d="
M1434.000000,2562.000000 
	C956.000000,2562.000000 479.000000,2562.000000 2.000000,2562.000000 
	C2.000000,1708.666626 2.000000,855.333313 2.000000,2.000000 
	C855.333313,2.000000 1708.666626,2.000000 2562.000000,2.000000 
	C2562.000000,855.333313 2562.000000,1708.666626 2562.000000,2562.000000 
	C2186.333252,2562.000000 1810.666626,2562.000000 1434.000000,2562.000000 
M1541.862061,786.107605 
	C1541.862061,780.986633 1541.862061,775.865662 1541.862061,770.673645 
	C1537.960571,770.393982 1535.026001,770.183594 1531.646484,768.614929 
	C1529.923950,765.393372 1528.237671,762.151794 1526.473267,758.953308 
	C1497.117920,705.739197 1467.765381,652.523560 1438.372192,599.330261 
	C1435.093750,593.397095 1431.572266,587.598145 1427.488037,580.575317 
	C1417.872681,604.033630 1409.016724,625.826172 1399.968140,647.538513 
	C1398.395264,651.312866 1398.716553,654.146484 1401.081909,657.582336 
	C1419.182983,683.874817 1437.132202,710.272766 1454.990967,736.730896 
	C1462.414917,747.729858 1469.502441,758.955811 1474.784302,770.284546 
	C1434.947632,770.296814 1395.111084,770.321289 1355.274414,770.296631 
	C1352.299927,770.294800 1349.325562,769.941101 1346.344116,767.901489 
	C1346.343872,737.239441 1346.477661,706.576233 1346.232788,675.916138 
	C1346.182495,669.625366 1347.672241,664.641357 1351.722046,659.662964 
	C1383.167358,621.007141 1414.347290,582.135498 1445.628540,543.346069 
	C1451.217041,536.416077 1456.894531,529.557800 1462.402710,522.823242 
	C1490.049316,536.212158 1516.641846,527.293762 1531.890259,509.645050 
	C1548.247559,490.712738 1548.462524,465.759613 1531.897339,437.210083 
	C1537.564453,427.286407 1547.462280,420.012177 1552.814331,408.326355 
	C1547.698730,408.326355 1544.058228,408.326355 1540.417603,408.326355 
	C1413.765015,408.326355 1287.112305,408.326355 1160.459717,408.326355 
	C1100.799683,408.326355 1041.139404,408.401093 981.479553,408.295105 
	C951.282837,408.241455 925.489929,396.669678 904.986816,375.139008 
	C880.483826,349.407959 870.257751,318.167816 875.833252,282.709839 
	C879.842163,257.214813 891.940063,235.904343 911.564148,218.885056 
	C931.953003,201.202591 955.458191,192.145462 982.473450,191.613235 
	C1010.851501,191.054138 1025.478882,165.402206 1017.729248,142.801605 
	C1013.589722,130.728989 1005.553467,120.961906 992.526550,120.068657 
	C975.051270,118.870377 957.407898,118.690643 939.949646,123.033661 
	C897.246826,133.656662 862.519714,156.429642 836.578369,191.604462 
	C815.038574,220.810928 801.141235,253.170624 803.577515,290.729950 
	C804.115723,299.027435 803.927246,307.400482 803.594727,315.719574 
	C803.056580,329.184052 805.436401,342.016541 809.331177,354.925385 
	C829.484497,421.722687 890.383728,472.743164 959.990906,480.249756 
	C971.493469,481.490234 983.108643,481.685638 995.321167,482.402100 
	C1034.801758,585.912048 1074.377319,689.671204 1114.124756,793.880493 
	C1062.212769,793.880493 1011.343994,793.880493 960.075439,793.880493 
	C960.075439,751.213867 960.075439,708.991028 960.075439,666.357239 
	C979.232971,654.793335 998.522705,643.149597 1018.070068,631.350403 
	C1010.576477,589.398499 1003.585083,547.967712 995.428772,505.258209 
	C992.221436,509.003448 990.197449,511.172272 988.389038,513.508057 
	C964.385254,544.511841 940.578918,575.671021 916.289246,606.448792 
	C911.448181,612.582947 909.453491,618.540710 909.498535,626.309631 
	C909.801575,678.635376 909.656372,730.963806 909.656372,783.291321 
	C909.656372,786.824768 909.656372,790.358215 909.656372,794.326294 
	C894.035461,794.326294 879.716980,794.261414 865.399475,794.357361 
	C859.429810,794.397400 853.353943,794.132751 847.511597,795.111816 
	C810.290161,801.349670 779.118408,818.789246 755.541077,848.216309 
	C735.591064,873.116028 723.455139,901.132812 723.498413,934.157959 
	C723.798218,1162.798828 723.780640,1391.440552 723.467468,1620.081543 
	C723.435547,1643.379517 728.261169,1664.990601 739.443726,1685.089355 
	C767.611328,1735.715698 810.733765,1762.752441 868.807678,1764.175415 
	C905.781067,1765.081543 942.792786,1764.426392 979.881287,1765.972534 
	C979.386353,1767.870605 979.036926,1769.821289 978.374939,1771.659058 
	C966.666992,1804.165649 954.905884,1836.653076 943.219788,1869.167358 
	C942.503052,1871.161621 942.315308,1873.346191 941.827881,1875.700684 
	C995.499878,1875.700684 1048.330688,1875.700684 1100.828003,1875.700684 
	C1107.208984,1857.130737 1113.447876,1839.255005 1119.490234,1821.312988 
	C1125.843506,1802.447144 1132.008789,1783.517944 1140.076660,1764.432983 
	C1200.725098,1764.379395 1261.373535,1764.325806 1322.430908,1766.068604 
	C1321.731934,1777.329834 1321.122314,1788.597412 1320.312988,1799.850708 
	C1319.076416,1817.046143 1317.510132,1834.220215 1316.470337,1851.426758 
	C1315.979614,1859.545898 1316.386230,1867.719238 1316.386230,1875.832764 
	C1369.352783,1875.832764 1421.558594,1875.832764 1474.572876,1875.832764 
	C1475.627930,1861.222778 1476.696777,1847.045410 1477.666016,1832.861206 
	C1479.226196,1810.030762 1480.720703,1787.195801 1484.093994,1764.344482 
	C1503.749878,1764.343872 1523.411377,1764.048462 1543.060425,1764.416992 
	C1567.874878,1764.882324 1591.338257,1759.522461 1612.973022,1747.698608 
	C1664.507812,1719.532837 1693.105103,1675.670532 1693.335205,1617.041992 
	C1694.196777,1397.499634 1693.699219,1177.951904 1693.623657,958.406128 
	C1693.619873,947.470581 1693.311401,936.485229 1692.259399,925.608704 
	C1688.268311,884.342163 1668.894043,851.213623 1636.924072,825.560669 
	C1610.748169,804.557129 1580.904175,792.833496 1546.663818,794.241882 
	C1545.048584,792.082886 1543.487305,789.996033 1541.862061,786.107605 
z"/>
<path fill="#80C9BF" opacity="1.000000" stroke="none" 
	d="
M1138.256226,1764.616455 
	C1132.008789,1783.517944 1125.843506,1802.447144 1119.490234,1821.312988 
	C1113.447876,1839.255005 1107.208984,1857.130737 1100.828003,1875.700684 
	C1048.330688,1875.700684 995.499878,1875.700684 941.827881,1875.700684 
	C942.315308,1873.346191 942.503052,1871.161621 943.219788,1869.167358 
	C954.905884,1836.653076 966.666992,1804.165649 978.374939,1771.659058 
	C979.036926,1769.821289 979.386353,1767.870605 980.512878,1764.944824 
	C982.345642,1762.043457 983.933655,1760.312622 984.686707,1758.273682 
	C990.657715,1742.106812 996.598450,1725.925903 1002.253296,1709.646973 
	C1003.961975,1704.727905 1004.742920,1699.486694 1006.437256,1693.836792 
	C1025.594116,1641.751953 1044.207153,1590.203247 1062.942261,1538.698975 
	C1103.838745,1426.272217 1144.834229,1313.881592 1185.718384,1201.450317 
	C1214.897705,1121.207397 1243.981934,1040.929932 1273.067627,960.653015 
	C1284.725830,928.476013 1296.273926,896.259094 1308.408447,863.604492 
	C1310.519409,859.890503 1312.387939,856.739746 1313.621460,853.357361 
	C1322.571655,828.814331 1331.304199,804.191406 1340.355713,779.686218 
	C1341.671997,776.122498 1344.319580,773.050537 1346.351196,769.751038 
	C1349.325562,769.941101 1352.299927,770.294800 1355.274414,770.296631 
	C1395.111084,770.321289 1434.947632,770.296814 1476.522583,770.373901 
	C1479.505005,770.855896 1480.747314,771.583252 1481.993652,771.590393 
	C1497.202759,771.677551 1512.412842,771.706055 1527.621460,771.593628 
	C1529.115356,771.582642 1530.601685,770.538025 1532.091553,769.973267 
	C1535.026001,770.183594 1537.960571,770.393982 1541.862061,770.673645 
	C1541.862061,775.865662 1541.862061,780.986633 1541.319580,787.600586 
	C1539.239380,814.071960 1537.701660,839.050415 1536.229736,864.960754 
	C1534.854858,890.732727 1533.425781,915.573425 1531.970215,940.412659 
	C1530.767334,960.942078 1529.499023,981.467712 1528.323486,1001.998718 
	C1527.355591,1018.899292 1526.613770,1035.813599 1525.534058,1052.706787 
	C1523.906128,1078.176392 1521.953979,1103.625366 1520.364136,1129.097168 
	C1519.247314,1146.989258 1518.681152,1164.915894 1517.551270,1182.806885 
	C1515.963745,1207.947510 1513.940063,1233.060791 1512.372437,1258.202515 
	C1511.236328,1276.422485 1510.745972,1294.682983 1509.593994,1312.901733 
	C1508.025391,1337.708130 1506.021729,1362.486694 1504.353394,1387.287231 
	C1502.906982,1408.790039 1501.661011,1430.306274 1500.338867,1451.817261 
	C1498.996338,1473.661865 1497.668945,1495.507324 1496.334717,1517.352417 
	C1494.333252,1550.117920 1492.272705,1582.880127 1490.348633,1615.650146 
	C1488.812378,1641.811646 1487.442505,1667.982910 1485.759155,1694.933960 
	C1485.247925,1696.320068 1484.775391,1696.908569 1484.733887,1697.526245 
	C1483.316284,1718.640747 1481.910156,1739.756226 1480.637939,1760.879639 
	C1480.570190,1762.004272 1481.680786,1763.200073 1482.242920,1764.362671 
	C1480.720703,1787.195801 1479.226196,1810.030762 1477.666016,1832.861206 
	C1476.696777,1847.045410 1475.627930,1861.222778 1474.572876,1875.832764 
	C1421.558594,1875.832764 1369.352783,1875.832764 1316.386230,1875.832764 
	C1316.386230,1867.719238 1315.979614,1859.545898 1316.470337,1851.426758 
	C1317.510132,1834.220215 1319.076416,1817.046143 1320.312988,1799.850708 
	C1321.122314,1788.597412 1321.731934,1777.329834 1322.828613,1764.655396 
	C1323.565674,1762.317993 1324.126465,1761.413574 1324.210938,1760.466675 
	C1325.479858,1746.259155 1326.899536,1732.059937 1327.822632,1717.828857 
	C1328.330933,1709.992676 1327.979492,1702.100708 1328.149414,1693.365479 
	C1329.322266,1679.330688 1330.361572,1666.164429 1331.453979,1652.324585 
	C1279.809448,1652.324585 1228.390137,1652.324585 1176.200073,1652.324585 
	C1172.093994,1666.379150 1168.022827,1680.314209 1163.499512,1694.770996 
	C1161.464966,1698.065674 1159.447754,1700.681152 1158.376831,1703.639282 
	C1154.111450,1715.420288 1150.034424,1727.272827 1146.097412,1739.168335 
	C1143.309204,1747.593262 1140.857910,1756.129761 1138.256226,1764.616455 
M1361.581177,1290.220215 
	C1362.381592,1277.970337 1363.048096,1265.709961 1364.011353,1253.472900 
	C1365.806885,1230.660889 1367.812988,1207.865356 1369.659302,1185.057251 
	C1371.050537,1167.869995 1372.602661,1150.688965 1373.554810,1133.475830 
	C1374.119385,1123.271118 1373.658325,1113.009644 1373.658325,1102.982422 
	C1368.786011,1101.089722 1367.415039,1104.085938 1366.222290,1107.462646 
	C1361.020752,1122.187744 1355.703613,1136.872681 1350.587158,1151.627197 
	C1332.407837,1204.052002 1314.280762,1256.495117 1296.158569,1308.939697 
	C1280.423706,1354.475586 1264.708740,1400.018188 1249.015991,1445.568604 
	C1245.371582,1456.146484 1241.853394,1466.767822 1238.123657,1477.824219 
	C1274.609497,1477.824219 1310.160156,1477.824219 1345.815796,1477.824219 
	C1346.491699,1474.117676 1347.373535,1470.897339 1347.626831,1467.628296 
	C1349.164673,1447.779785 1350.503540,1427.915894 1352.015991,1408.065430 
	C1353.955933,1382.604370 1356.001465,1357.151367 1357.992554,1331.694214 
	C1359.026978,1318.467896 1360.041504,1305.240112 1361.581177,1290.220215 
z"/>
<path fill="#FDFDFD" opacity="1.000000" stroke="none" 
	d="
M1346.347656,768.826294 
	C1344.319580,773.050537 1341.671997,776.122498 1340.355713,779.686218 
	C1331.304199,804.191406 1322.571655,828.814331 1313.621460,853.357361 
	C1312.387939,856.739746 1310.519409,859.890503 1307.490356,863.457336 
	C1304.370361,863.735229 1302.704956,863.677307 1301.039429,863.677246 
	C1159.742676,863.673035 1018.445862,863.673279 877.149109,863.673218 
	C875.816101,863.673218 874.482544,863.647827 873.150208,863.678711 
	C835.745911,864.544983 806.350525,888.457642 796.387512,919.919861 
	C792.826660,931.164856 793.562622,942.627136 793.562561,954.189148 
	C793.562256,1174.448486 793.365540,1394.707764 793.270691,1614.967163 
	C793.268555,1619.937744 793.462280,1625.012085 794.435547,1629.863159 
	C802.836060,1671.737061 838.450256,1694.892578 871.986328,1694.470947 
	C916.633789,1693.909546 961.294067,1694.370972 1005.948853,1694.393066 
	C1004.742920,1699.486694 1003.961975,1704.727905 1002.253296,1709.646973 
	C996.598450,1725.925903 990.657715,1742.106812 984.686707,1758.273682 
	C983.933655,1760.312622 982.345642,1762.043457 980.465881,1764.194092 
	C942.792786,1764.426392 905.781067,1765.081543 868.807678,1764.175415 
	C810.733765,1762.752441 767.611328,1735.715698 739.443726,1685.089355 
	C728.261169,1664.990601 723.435547,1643.379517 723.467468,1620.081543 
	C723.780640,1391.440552 723.798218,1162.798828 723.498413,934.157959 
	C723.455139,901.132812 735.591064,873.116028 755.541077,848.216309 
	C779.118408,818.789246 810.290161,801.349670 847.511597,795.111816 
	C853.353943,794.132751 859.429810,794.397400 865.399475,794.357361 
	C879.716980,794.261414 894.035461,794.326294 909.656372,794.326294 
	C909.656372,790.358215 909.656372,786.824768 909.656372,783.291321 
	C909.656372,730.963806 909.801575,678.635376 909.498535,626.309631 
	C909.453491,618.540710 911.448181,612.582947 916.289246,606.448792 
	C940.578918,575.671021 964.385254,544.511841 988.389038,513.508057 
	C990.197449,511.172272 992.221436,509.003448 995.428772,505.258209 
	C1003.585083,547.967712 1010.576477,589.398499 1018.070068,631.350403 
	C998.522705,643.149597 979.232971,654.793335 960.075439,666.357239 
	C960.075439,708.991028 960.075439,751.213867 960.075439,793.880493 
	C1011.343994,793.880493 1062.212769,793.880493 1114.124756,793.880493 
	C1074.377319,689.671204 1034.801758,585.912048 995.321167,482.402100 
	C983.108643,481.685638 971.493469,481.490234 959.990906,480.249756 
	C890.383728,472.743164 829.484497,421.722687 809.331177,354.925385 
	C805.436401,342.016541 803.056580,329.184052 803.594727,315.719574 
	C803.927246,307.400482 804.115723,299.027435 803.577515,290.729950 
	C801.141235,253.170624 815.038574,220.810928 836.578369,191.604462 
	C862.519714,156.429642 897.246826,133.656662 939.949646,123.033661 
	C957.407898,118.690643 975.051270,118.870377 992.526550,120.068657 
	C1005.553467,120.961906 1013.589722,130.728989 1017.729248,142.801605 
	C1025.478882,165.402206 1010.851501,191.054138 982.473450,191.613235 
	C955.458191,192.145462 931.953003,201.202591 911.564148,218.885056 
	C891.940063,235.904343 879.842163,257.214813 875.833252,282.709839 
	C870.257751,318.167816 880.483826,349.407959 904.986816,375.139008 
	C925.489929,396.669678 951.282837,408.241455 981.479553,408.295105 
	C1041.139404,408.401093 1100.799683,408.326355 1160.459717,408.326355 
	C1287.112305,408.326355 1413.765015,408.326355 1540.417603,408.326355 
	C1544.058228,408.326355 1547.698730,408.326355 1552.814331,408.326355 
	C1547.462280,420.012177 1537.564453,427.286407 1531.897339,437.210083 
	C1548.462524,465.759613 1548.247559,490.712738 1531.890259,509.645050 
	C1516.641846,527.293762 1490.049316,536.212158 1462.402710,522.823242 
	C1456.894531,529.557800 1451.217041,536.416077 1445.628540,543.346069 
	C1414.347290,582.135498 1383.167358,621.007141 1351.722046,659.662964 
	C1347.672241,664.641357 1346.182495,669.625366 1346.232788,675.916138 
	C1346.477661,706.576233 1346.343872,737.239441 1346.347656,768.826294 
M1295.652466,790.466614 
	C1295.652466,721.890320 1295.652466,653.314026 1295.652466,584.752625 
	C1294.012817,584.252563 1293.107422,583.736511 1292.201172,583.734924 
	C1262.540161,583.682434 1232.878662,583.736755 1203.218140,583.598083 
	C1199.426758,583.580383 1197.173950,585.270996 1194.849609,587.922119 
	C1173.387939,612.400452 1151.861450,636.822510 1130.239502,661.159302 
	C1127.127075,664.662415 1125.944214,667.613464 1127.571533,672.630981 
	C1137.095093,701.993347 1146.082153,731.529602 1155.253784,761.006104 
	C1158.689941,772.049194 1162.135254,783.089417 1165.426147,793.648987 
	C1167.044800,794.008545 1167.693359,794.278320 1168.342163,794.278809 
	C1208.667969,794.310486 1248.994019,794.349182 1289.319458,794.248718 
	C1291.393799,794.243591 1293.465332,793.029175 1295.652466,790.466614 
z"/>
<path fill="#FCFCFC" opacity="1.000000" stroke="none" 
	d="
M1483.168457,1764.353516 
	C1481.680786,1763.200073 1480.570190,1762.004272 1480.637939,1760.879639 
	C1481.910156,1739.756226 1483.316284,1718.640747 1484.733887,1697.526245 
	C1484.775391,1696.908569 1485.247925,1696.320068 1486.693848,1694.998291 
	C1507.193237,1694.293335 1526.518188,1694.348389 1545.843018,1694.313477 
	C1580.312622,1694.251343 1610.655273,1670.643311 1620.541504,1637.448242 
	C1623.796021,1626.520386 1622.310791,1615.875488 1622.311523,1605.067139 
	C1622.326294,1385.162109 1622.064697,1165.256714 1622.530029,945.352600 
	C1622.628784,898.692688 1583.463989,860.569946 1536.164062,864.028870 
	C1537.701660,839.050415 1539.239380,814.071960 1541.351562,788.501343 
	C1543.487305,789.996033 1545.048584,792.082886 1546.663818,794.241882 
	C1580.904175,792.833496 1610.748169,804.557129 1636.924072,825.560669 
	C1668.894043,851.213623 1688.268311,884.342163 1692.259399,925.608704 
	C1693.311401,936.485229 1693.619873,947.470581 1693.623657,958.406128 
	C1693.699219,1177.951904 1694.196777,1397.499634 1693.335205,1617.041992 
	C1693.105103,1675.670532 1664.507812,1719.532837 1612.973022,1747.698608 
	C1591.338257,1759.522461 1567.874878,1764.882324 1543.060425,1764.416992 
	C1523.411377,1764.048462 1503.749878,1764.343872 1483.168457,1764.353516 
z"/>
<path fill="#FDFDFD" opacity="1.000000" stroke="none" 
	d="
M1139.166504,1764.524658 
	C1140.857910,1756.129761 1143.309204,1747.593262 1146.097412,1739.168335 
	C1150.034424,1727.272827 1154.111450,1715.420288 1158.376831,1703.639282 
	C1159.447754,1700.681152 1161.464966,1698.065674 1164.440674,1694.807373 
	C1219.894531,1694.292603 1273.955078,1694.263306 1328.015625,1694.233887 
	C1327.979492,1702.100708 1328.330933,1709.992676 1327.822632,1717.828857 
	C1326.899536,1732.059937 1325.479858,1746.259155 1324.210938,1760.466675 
	C1324.126465,1761.413574 1323.565674,1762.317993 1322.624268,1763.757080 
	C1261.373535,1764.325806 1200.725098,1764.379395 1139.166504,1764.524658 
z"/>
<path fill="#FCFCFC" opacity="1.000000" stroke="none" 
	d="
M1531.869019,769.294067 
	C1530.601685,770.538025 1529.115356,771.582642 1527.621460,771.593628 
	C1512.412842,771.706055 1497.202759,771.677551 1481.993652,771.590393 
	C1480.747314,771.583252 1479.505005,770.855896 1477.501953,770.270874 
	C1469.502441,758.955811 1462.414917,747.729858 1454.990967,736.730896 
	C1437.132202,710.272766 1419.182983,683.874817 1401.081909,657.582336 
	C1398.716553,654.146484 1398.395264,651.312866 1399.968140,647.538513 
	C1409.016724,625.826172 1417.872681,604.033630 1427.488037,580.575317 
	C1431.572266,587.598145 1435.093750,593.397095 1438.372192,599.330261 
	C1467.765381,652.523560 1497.117920,705.739197 1526.473267,758.953308 
	C1528.237671,762.151794 1529.923950,765.393372 1531.869019,769.294067 
z"/>
<path fill="#000000" opacity="1.000000" stroke="none" 
	d="
M1006.437256,1693.836792 
	C961.294067,1694.370972 916.633789,1693.909546 871.986328,1694.470947 
	C838.450256,1694.892578 802.836060,1671.737061 794.435547,1629.863159 
	C793.462280,1625.012085 793.268555,1619.937744 793.270691,1614.967163 
	C793.365540,1394.707764 793.562256,1174.448486 793.562561,954.189148 
	C793.562622,942.627136 792.826660,931.164856 796.387512,919.919861 
	C806.350525,888.457642 835.745911,864.544983 873.150208,863.678711 
	C874.482544,863.647827 875.816101,863.673218 877.149109,863.673218 
	C1018.445862,863.673279 1159.742676,863.673035 1301.039429,863.677246 
	C1302.704956,863.677307 1304.370361,863.735229 1306.954102,863.913330 
	C1296.273926,896.259094 1284.725830,928.476013 1273.067627,960.653015 
	C1243.981934,1040.929932 1214.897705,1121.207397 1185.718384,1201.450317 
	C1144.834229,1313.881592 1103.838745,1426.272217 1062.942261,1538.698975 
	C1044.207153,1590.203247 1025.594116,1641.751953 1006.437256,1693.836792 
z"/>
<path fill="#000101" opacity="1.000000" stroke="none" 
	d="
M1536.229736,864.960754 
	C1583.463989,860.569946 1622.628784,898.692688 1622.530029,945.352600 
	C1622.064697,1165.256714 1622.326294,1385.162109 1622.311523,1605.067139 
	C1622.310791,1615.875488 1623.796021,1626.520386 1620.541504,1637.448242 
	C1610.655273,1670.643311 1580.312622,1694.251343 1545.843018,1694.313477 
	C1526.518188,1694.348389 1507.193237,1694.293335 1486.933594,1694.214355 
	C1487.442505,1667.982910 1488.812378,1641.811646 1490.348633,1615.650146 
	C1492.272705,1582.880127 1494.333252,1550.117920 1496.334717,1517.352417 
	C1497.668945,1495.507324 1498.996338,1473.661865 1500.338867,1451.817261 
	C1501.661011,1430.306274 1502.906982,1408.790039 1504.353394,1387.287231 
	C1506.021729,1362.486694 1508.025391,1337.708130 1509.593994,1312.901733 
	C1510.745972,1294.682983 1511.236328,1276.422485 1512.372437,1258.202515 
	C1513.940063,1233.060791 1515.963745,1207.947510 1517.551270,1182.806885 
	C1518.681152,1164.915894 1519.247314,1146.989258 1520.364136,1129.097168 
	C1521.953979,1103.625366 1523.906128,1078.176392 1525.534058,1052.706787 
	C1526.613770,1035.813599 1527.355591,1018.899292 1528.323486,1001.998718 
	C1529.499023,981.467712 1530.767334,960.942078 1531.970215,940.412659 
	C1533.425781,915.573425 1534.854858,890.732727 1536.229736,864.960754 
z"/>
<path fill="#010101" opacity="1.000000" stroke="none" 
	d="
M1361.323120,1291.116577 
	C1360.041504,1305.240112 1359.026978,1318.467896 1357.992554,1331.694214 
	C1356.001465,1357.151367 1353.955933,1382.604370 1352.015991,1408.065430 
	C1350.503540,1427.915894 1349.164673,1447.779785 1347.626831,1467.628296 
	C1347.373535,1470.897339 1346.491699,1474.117676 1345.815796,1477.824219 
	C1310.160156,1477.824219 1274.609497,1477.824219 1238.123657,1477.824219 
	C1241.853394,1466.767822 1245.371582,1456.146484 1249.015991,1445.568604 
	C1264.708740,1400.018188 1280.423706,1354.475586 1296.158569,1308.939697 
	C1314.280762,1256.495117 1332.407837,1204.052002 1350.587158,1151.627197 
	C1355.703613,1136.872681 1361.020752,1122.187744 1366.222290,1107.462646 
	C1367.415039,1104.085938 1368.786011,1101.089722 1373.658325,1102.982422 
	C1373.658325,1113.009644 1374.119385,1123.271118 1373.554810,1133.475830 
	C1372.602661,1150.688965 1371.050537,1167.869995 1369.659302,1185.057251 
	C1367.812988,1207.865356 1365.806885,1230.660889 1364.011353,1253.472900 
	C1363.048096,1265.709961 1362.381592,1277.970337 1361.323120,1291.116577 
z"/>
<path fill="#000101" opacity="1.000000" stroke="none" 
	d="
M1328.149414,1693.365479 
	C1273.955078,1694.263306 1219.894531,1694.292603 1164.892822,1694.285522 
	C1168.022827,1680.314209 1172.093994,1666.379150 1176.200073,1652.324585 
	C1228.390137,1652.324585 1279.809448,1652.324585 1331.453979,1652.324585 
	C1330.361572,1666.164429 1329.322266,1679.330688 1328.149414,1693.365479 
z"/>
<path fill="#010101" opacity="1.000000" stroke="none" 
	d="
M1295.595215,791.422119 
	C1293.465332,793.029175 1291.393799,794.243591 1289.319458,794.248718 
	C1248.994019,794.349182 1208.667969,794.310486 1168.342163,794.278809 
	C1167.693359,794.278320 1167.044800,794.008545 1165.426147,793.648987 
	C1162.135254,783.089417 1158.689941,772.049194 1155.253784,761.006104 
	C1146.082153,731.529602 1137.095093,701.993347 1127.571533,672.630981 
	C1125.944214,667.613464 1127.127075,664.662415 1130.239502,661.159302 
	C1151.861450,636.822510 1173.387939,612.400452 1194.849609,587.922119 
	C1197.173950,585.270996 1199.426758,583.580383 1203.218140,583.598083 
	C1232.878662,583.736755 1262.540161,583.682434 1292.201172,583.734924 
	C1293.107422,583.736511 1294.012817,584.252563 1295.652466,584.752625 
	C1295.652466,653.314026 1295.652466,721.890320 1295.595215,791.422119 
z"/>
</svg>